<svg width="64" height="64" viewBox="0 0 800 800" xmlns="http://www.w3.org/2000/svg">
  <!-- Background circle -->
  <circle cx="400" cy="400" r="350" fill="white" stroke="black" stroke-width="20"/>
  
  <!-- Sunglasses -->
  <ellipse cx="320" cy="280" rx="60" ry="40" fill="black"/>
  <ellipse cx="480" cy="280" rx="60" ry="40" fill="black"/>
  <rect x="380" y="270" width="40" height="20" fill="black"/>
  
  <!-- Mouth (surprised) -->
  <ellipse cx="400" cy="380" rx="15" ry="25" fill="black"/>
  
  <!-- Body outline -->
  <ellipse cx="400" cy="650" rx="120" ry="120" fill="white" stroke="black" stroke-width="15"/>
  
  <!-- Arms -->
  <ellipse cx="250" cy="600" rx="30" ry="80" fill="white" stroke="black" stroke-width="15" transform="rotate(-30 250 600)"/>
  <ellipse cx="550" cy="600" rx="30" ry="80" fill="white" stroke="black" stroke-width="15" transform="rotate(30 550 600)"/>
  
  <!-- Red tie -->
  <polygon points="400,520 380,540 380,700 420,700 420,540" fill="#FF0000"/>
  <polygon points="380,520 420,520 400,480 380,520" fill="#FF0000"/>
  
  <!-- Shirt collar -->
  <polygon points="360,500 400,480 440,500 440,520 400,520 360,520" fill="white" stroke="black" stroke-width="8"/>
  
  <!-- Legs -->
  <ellipse cx="360" cy="750" rx="25" ry="60" fill="white" stroke="black" stroke-width="12"/>
  <ellipse cx="440" cy="750" rx="25" ry="60" fill="white" stroke="black" stroke-width="12"/>
</svg>